<svg xmlns="http://www.w3.org/2000/svg" viewBox="0 0 576 512">
	<path fill="#d1d1d1" d="M572.52 241.4C518.29 170.59 410.93 110 288 110S57.68 170.64 3.48 241.41a32.35 32.35 0 0 0 0 29.19C57.71 326.41 165.07 405 288 405s230.32-81.64 280.82-139a32.35 32.35 0 0 0 0-29.19zM288.14 400H288a143.93 143.93 0 1 1 .14 0z"></path>
	<path fill="#808080" d="M380.66 280.87a95.78 95.78 0 1 1-184.87-50.18 47.85 47.85 0 0 0 66.9-66.9 95.3 95.3 0 0 1 118 117.08z" style="transform-origin:center;transform:scale(1.18);"></path>
</svg>